<svg xmlns="http://www.w3.org/2000/svg" width="280" height="68" viewBox="0 0 280 68" fill="none">
  <defs>
    <linearGradient id="btnGrad" x1="0%" y1="0%" x2="100%" y2="100%">
      <stop offset="0%" stop-color="#2C170E"/>
      <stop offset="50%" stop-color="#1D0E08"/>
      <stop offset="100%" stop-color="#110804"/>
    </linearGradient>
    <linearGradient id="borderGrad" x1="0%" y1="0%" x2="100%" y2="100%">
      <stop offset="0%" stop-color="#D4AF37" stop-opacity="0.8"/>
      <stop offset="50%" stop-color="#8E4424" stop-opacity="0.6"/>
      <stop offset="100%" stop-color="#552814" stop-opacity="0.4"/>
    </linearGradient>
    <filter id="glow" x="-10%" y="-10%" width="120%" height="120%">
      <feDropShadow dx="0" dy="2" stdDeviation="3" flood-color="#000000" flood-opacity="0.5"/>
    </filter>
  </defs>

  <!-- Button Background -->
  <rect x="1" y="1" width="278" height="66" rx="14" fill="url(#btnGrad)" stroke="url(#borderGrad)" stroke-width="1.5" filter="url(#glow)"/>

  <!-- Left Icon Circle -->
  <circle cx="36" cy="34" r="20" fill="#221008" stroke="#8E4424" stroke-width="1"/>

  <!-- Android Icon -->
  <g transform="translate(22, 20) scale(1.15)">
    <path fill="#3DDC84" d="M6 18c0 .55.45 1 1 1h1v3.5c0 .83.67 1.5 1.5 1.5s1.5-.67 1.5-1.5V19h4v3.5c0 .83.67 1.5 1.5 1.5s1.5-.67 1.5-1.5V19h1c.55 0 1-.45 1-1V8H6v10zM3.5 8C2.67 8 2 8.67 2 9.5v7c0 .83.67 1.5 1.5 1.5S5 17.33 5 16.5v-7C5 8.67 4.33 8 3.5 8zm17 0c-.83 0-1.5.67-1.5 1.5v7c0 .83.67 1.5 1.5 1.5s1.5-.67 1.5-1.5v-7c0-.83-.67-1.5-1.5-1.5zm-4.97-4.84l1.3-1.3c.2-.2.2-.51 0-.71-.2-.2-.51-.2-.71 0l-1.48 1.48C13.85 2.23 12.95 2 12 2c-.96 0-1.86.23-2.66.63L7.85 1.15c-.2-.2-.51-.2-.71 0-.2.2-.2.51 0 .71l1.31 1.31C6.97 4.26 6 5.96 6 8h12c0-2.04-.97-3.74-2.47-4.84zM10 5H9V4h1v1zm5 0h-1V4h1v1z"/>
  </g>

  <!-- Typography -->
  <text x="68" y="22" font-family="-apple-system, BlinkMacSystemFont, 'Segoe UI', Roboto, Helvetica, Arial, sans-serif" font-size="9.5" font-weight="600" fill="#D4AF37" letter-spacing="1.2">ELET • ዕለት FOR ANDROID</text>
  <text x="68" y="42" font-family="-apple-system, BlinkMacSystemFont, 'Segoe UI', Roboto, Helvetica, Arial, sans-serif" font-size="16" font-weight="700" fill="#FFFFFF">Download APK</text>
  <rect x="180" y="30" width="46" height="16" rx="8" fill="#8E4424" fill-opacity="0.4" stroke="#D4AF37" stroke-width="0.8"/>
  <text x="203" y="41" font-family="-apple-system, BlinkMacSystemFont, 'Segoe UI', Roboto, Helvetica, Arial, sans-serif" font-size="9.5" font-weight="600" fill="#FFDAC6" text-anchor="middle">v1.3.0</text>
  <text x="68" y="56" font-family="-apple-system, BlinkMacSystemFont, 'Segoe UI', Roboto, Helvetica, Arial, sans-serif" font-size="9" fill="#A89388">~30 MB • 100% Offline • ARM64</text>

  <!-- Download Arrow Icon -->
  <g transform="translate(248, 26)">
    <circle cx="8" cy="8" r="12" fill="#8E4424" fill-opacity="0.2"/>
    <path d="M8 4v8m0 0l-3-3m3 3l3-3m-5 5h10" stroke="#D4AF37" stroke-width="1.6" stroke-linecap="round" stroke-linejoin="round"/>
  </g>
</svg>